<?xml version="1.0" encoding="UTF-8"?>
<svg width="305px" height="219px" viewBox="0 0 305 219" version="1.1" xmlns="http://www.w3.org/2000/svg" xmlns:xlink="http://www.w3.org/1999/xlink">
    <!-- Generator: Sketch 46.2 (44496) - http://www.bohemiancoding.com/sketch -->
    <title>icon bolo</title>
    <desc>Created with Sketch.</desc>
    <defs></defs>
    <g id="Email" stroke="none" stroke-width="1" fill="none" fill-rule="evenodd">
        <g id="Disponibilizado-Copy-2" transform="translate(-314.000000, -283.000000)">
            <g id="icon-bolo" transform="translate(314.000000, 284.000000)">
                <path d="M99.7454545,141.707006 C99.7454545,136.387175 95.4525766,132.076433 90.1575758,132.076433 C84.8625749,132.076433 80.569697,136.387175 80.569697,141.707006" id="Stroke-1" stroke="#00C8B3" stroke-width="2.0527182" stroke-linecap="round" stroke-linejoin="round"></path>
                <path d="M99.7454545,141.707006 C99.7454545,147.025586 104.036581,151.33758 109.332205,151.33758 C114.627829,151.33758 118.921212,147.025586 118.921212,141.707006" id="Stroke-3" stroke="#00C8B3" stroke-width="2.0527182" stroke-linecap="round" stroke-linejoin="round"></path>
                <g id="curva" transform="translate(14.266475, 80.479026) rotate(24.000000) translate(-14.266475, -80.479026) translate(1.766475, 73.479026)" stroke="#00C8B3" stroke-width="2.0527182" stroke-linecap="round" stroke-linejoin="round">
                    <path d="M12.7569328,7.45542451 C12.7569328,3.44091982 10.096174,0.187904723 6.81429184,0.187904723 C3.53240963,0.187904723 0.871650918,3.44091982 0.871650918,7.45542451" id="Stroke-1"></path>
                    <path d="M12.7569328,6.15700799 C12.7569328,10.1705677 15.4166056,13.4245278 18.6988741,13.4245278 C21.9811427,13.4245278 24.6422146,10.1705677 24.6422146,6.15700799" id="Stroke-3"></path>
                </g>
                <g id="curva" transform="translate(32.208684, 146.180643) rotate(-42.000000) translate(-32.208684, -146.180643) translate(20.708684, 140.180643)" stroke="#00C8B3" stroke-width="2.0527182" stroke-linecap="round" stroke-linejoin="round">
                    <path d="M11.5202589,5.66344147 C11.5202589,2.55964677 9.0156285,0.0445940274 5.92632101,0.0445940274 C2.83701353,0.0445940274 0.332383159,2.55964677 0.332383159,5.66344147" id="Stroke-1"></path>
                    <path d="M11.5202589,5.66344147 C11.5202589,8.76650553 14.0238671,11.2822889 17.1135382,11.2822889 C20.2032094,11.2822889 22.7081346,8.76650553 22.7081346,5.66344147" id="Stroke-3"></path>
                </g>
                <g id="curva" transform="translate(265.694765, 152.697089) rotate(13.000000) translate(-265.694765, -152.697089) translate(257.694765, 148.697089)" stroke="#00C8B3" stroke-width="2.0527182" stroke-linecap="round" stroke-linejoin="round">
                    <path d="M8.1082028,3.98605036 C8.1082028,1.80153375 6.34539077,0.0313862233 4.17107056,0.0313862233 C1.99675036,0.0313862233 0.233938325,1.80153375 0.233938325,3.98605036" id="Stroke-1"></path>
                    <path d="M8.1082028,3.98605036 C8.1082028,6.17005273 9.87029542,7.9407145 12.0448716,7.9407145 C14.2194477,7.9407145 15.9824673,6.17005273 15.9824673,3.98605036" id="Stroke-3"></path>
                </g>
                <g id="curva" transform="translate(271.672903, 90.851305) rotate(-48.000000) translate(-271.672903, -90.851305) translate(261.172903, 74.351305)" stroke="#00C8B3" stroke-linecap="round" stroke-linejoin="round">
                    <path d="M9.97031157,6.1368203 C9.97031157,2.74690261 7.73825736,-1.70530257e-13 4.98515579,-1.70530257e-13 C2.23205422,-1.70530257e-13 0,2.74690261 0,6.1368203" id="Stroke-1" stroke-width="2.0527182"></path>
                    <path d="M20.2181818,29.4405243 L20.2181818,29.4405243 C17.9616807,29.4405243 16.1324171,27.9001453 16.1324171,26 L16.0833093,26 C16.0833093,27.9001453 14.2540457,29.4405243 12,29.4405243 C14.2540457,29.4405243 16.0833093,30.9809032 16.0833093,32.8789809 L16.1324171,32.8789809 C16.1324171,30.9788356 17.9616807,29.4405243 20.2181818,29.4405243 Z" id="Stroke-77" stroke-width="1.3684788"></path>
                    <path d="M10,5 C10,8.38544443 12.2287238,11.1301654 14.9791635,11.1301654 C17.7296033,11.1301654 19.9594995,8.38544443 19.9594995,5" id="Stroke-3" stroke-width="2.0527182"></path>
                </g>
                <path d="M157.272727,141.707006 C157.272727,146.768225 153.227647,151.181017 147.979426,151.333332 C142.550621,151.489999 138.09697,147.292625 138.09697,142.094322" id="Stroke-5" stroke="#00C8B3" stroke-width="2.0527182" stroke-linecap="round" stroke-linejoin="round"></path>
                <path d="M195.624242,141.707006 C195.624242,146.768225 191.579162,151.181017 186.333198,151.333332 C180.902136,151.489999 176.448485,147.292625 176.448485,142.094322" id="Stroke-7" stroke="#00C8B3" stroke-width="2.0527182" stroke-linecap="round" stroke-linejoin="round"></path>
                <path d="M80.5689446,141.733527 C80.5689446,147.347206 75.7588285,151.839506 70.0413137,151.292382 C65.0551352,150.817604 61.3939394,146.336609 61.3939394,141.319793 L61.3939394,93.9731682 C61.3939394,89.9443417 64.6556089,86.6751592 68.6779584,86.6751592 L226.689481,86.6751592 C230.714088,86.6751592 233.975758,89.9443417 233.975758,93.9731682 L233.975758,141.319793 C233.975758,146.336609 230.314562,150.817604 225.328383,151.292382 C219.610868,151.839506 214.800752,147.347206 214.800752,141.733527" id="Stroke-9" stroke="#00C8B3" stroke-width="2.0527182" stroke-linecap="round" stroke-linejoin="round"></path>
                <circle id="Oval-2" fill="#00C8B3" cx="303" cy="98" r="2"></circle>
                <path d="M73,29.5495643 C75.0568294,27.4834786 78.3921826,27.4834786 80.4507076,29.5495643 C82.5058413,31.6156501 82.5058413,34.9660134 80.4507076,37.0320992" id="Stroke-61" stroke="#00C8B3" stroke-width="2.0527182" stroke-linecap="round" stroke-linejoin="round"></path>
                <path d="M109.333333,17.8853503 L109.385382,17.8853503" id="Stroke-55" stroke="#00C8B3" stroke-width="1.3684788" stroke-linecap="round" stroke-linejoin="round"></path>
                <circle id="Oval" fill="#00C8B3" cx="293" cy="50" r="2"></circle>
                <path d="M138.09697,141.707006 C138.09697,136.387175 133.805844,132.076433 128.507962,132.076433 C123.212338,132.076433 118.921212,136.387175 118.921212,141.707006" id="Stroke-11" stroke="#00C8B3" stroke-width="2.0527182" stroke-linecap="round" stroke-linejoin="round"></path>
                <path d="M176.448485,141.707006 C176.448485,136.387175 172.157359,132.076433 166.861735,132.076433 C161.563853,132.076433 157.272727,136.387175 157.272727,141.707006" id="Stroke-13" stroke="#00C8B3" stroke-width="2.0527182" stroke-linecap="round" stroke-linejoin="round"></path>
                <path d="M214.8,141.707006 C214.8,136.387175 210.507122,132.076433 205.212121,132.076433 C199.91712,132.076433 195.624242,136.387175 195.624242,141.707006" id="Stroke-15" stroke="#00C8B3" stroke-width="2.0527182" stroke-linecap="round" stroke-linejoin="round"></path>
                <path d="M107.963636,81.1719745 L107.963636,60.4706039 C107.963636,58.9875613 106.834397,57.7834395 105.436698,57.7834395 L100.904827,57.7834395 C99.5071273,57.7834395 98.3757576,58.9875613 98.3757576,60.4706039 L98.3757576,81.1719745" id="Stroke-17" stroke="#FFFFFF" stroke-width="2.0527182" stroke-linecap="round" stroke-linejoin="round"></path>
                <path d="M195.624242,81.1719745 L195.624242,60.4706039 C195.624242,58.9875613 194.492873,57.7834395 193.097304,57.7834395 L188.563302,57.7834395 C187.165603,57.7834395 186.036364,58.9875613 186.036364,60.4706039 L186.036364,81.1719745" id="Stroke-19" stroke="#FFFFFF" stroke-width="2.0527182" stroke-linecap="round" stroke-linejoin="round"></path>
                <path d="M151.793939,81.1719745 L151.793939,46.7236878 C151.793939,45.234549 150.66257,44.0254777 149.267001,44.0254777 L144.732999,44.0254777 C143.33743,44.0254777 142.206061,45.234549 142.206061,46.7236878 L142.206061,81.1719745" id="Stroke-21" stroke="#FFFFFF" stroke-width="2.0527182" stroke-linecap="round" stroke-linejoin="round"></path>
                <path d="M147.68414,20.6369427 L147.68414,20.6369427 L143.775878,29.5255013 C142.923556,31.9309214 144.900368,34.3949045 147.68414,34.3949045 C150.467911,34.3949045 152.444723,31.9309214 151.59479,29.5255013 L147.68414,20.6369427 Z" id="Stroke-23" stroke="#00C8B3" stroke-width="2.0527182" stroke-linecap="round" stroke-linejoin="round"></path>
                <path d="M103.853541,38.522293 L103.853541,38.522293 L101.248175,45.6302304 C100.680947,47.5582848 101.998727,49.5286624 103.853541,49.5286624 C105.708354,49.5286624 107.028291,47.5582848 106.461063,45.6302304 L103.853541,38.522293 Z" id="Stroke-25" stroke="#00C8B3" stroke-width="2.0527182" stroke-linecap="round" stroke-linejoin="round"></path>
                <path d="M190.146459,38.522293 L190.146459,38.522293 L187.538937,45.6302304 C186.971709,47.5582848 188.291646,49.5286624 190.146459,49.5286624 C192.001273,49.5286624 193.319053,47.5582848 192.751825,45.6302304 L190.146459,38.522293 Z" id="Stroke-27" stroke="#00C8B3" stroke-width="2.0527182" stroke-linecap="round" stroke-linejoin="round"></path>
                <polyline id="Stroke-29" stroke="#FFFFFF" stroke-width="2.0527182" stroke-linecap="round" stroke-linejoin="round" points="65.5030303 159.592357 65.5030303 196.738854 228.49697 196.738854 228.49697 159.592357"></polyline>
                <path d="M243.867468,216 L51.504485,216 C49.4022313,216 47.6969697,214.270643 47.6969697,212.13586 C47.6969697,206.162133 52.467642,196.738854 58.3503434,196.738854 L237.021609,196.738854 C242.904311,196.738854 247.672727,206.162133 247.672727,212.13586 C247.672727,214.270643 245.969721,216 243.867468,216 Z" id="Stroke-31" stroke="#FFFFFF" stroke-width="2.0527182" stroke-linecap="round" stroke-linejoin="round"></path>
                <path d="M87.4181818,101.808917 L77.830303,111.43949" id="Stroke-33" stroke="#00C8B3" stroke-width="2.0527182" stroke-linecap="round" stroke-linejoin="round"></path>
                <path d="M101.115152,112.815287 L106.593939,122.44586" id="Stroke-35" stroke="#00C8B3" stroke-width="2.0527182" stroke-linecap="round" stroke-linejoin="round"></path>
                <path d="M129.878788,116.942675 L135.357576,111.43949" id="Stroke-37" stroke="#00C8B3" stroke-width="2.0527182" stroke-linecap="round" stroke-linejoin="round"></path>
                <path d="M116.181818,107.312102 L116.181818,99.0573248" id="Stroke-39" stroke="#00C8B3" stroke-width="2.0527182" stroke-linecap="round" stroke-linejoin="round"></path>
                <circle id="Oval" fill="#00C8B3" cx="23" cy="76" r="2"></circle>
                <circle id="Oval" fill="#00C8B3" cx="2" cy="114" r="2"></circle>
                <path d="M11.3152398,21.9138102 L11.3152398,18.5390451 C11.3152398,18.2413387 11.0739011,18 10.7761947,18 C10.4784884,18 10.2371496,18.2413387 10.2371496,18.5390451 L10.2371496,21.9138102 L7.5390451,21.9138102 C7.24133871,21.9138102 7,22.1551489 7,22.4528553 C7,22.7505617 7.24133871,22.9919004 7.5390451,22.9919004 L10.2371496,22.9919004 L10.2371496,26.487314 C10.2371496,26.7850204 10.4784884,27.0263591 10.7761947,27.0263591 C11.0739011,27.0263591 11.3152398,26.7850204 11.3152398,26.487314 L11.3152398,22.9919004 L14.0133444,22.9919004 C14.3110508,22.9919004 14.5523895,22.7505617 14.5523895,22.4528553 C14.5523895,22.1551489 14.3110508,21.9138102 14.0133444,21.9138102 L11.3152398,21.9138102 Z" id="Combined-Shape" stroke="#00C8B3" stroke-width="1.05299997" stroke-linecap="round" stroke-linejoin="round"></path>
                <path d="M164.121212,116.942675 L154.533333,127.949045" id="Stroke-41" stroke="#00C8B3" stroke-width="2.0527182" stroke-linecap="round" stroke-linejoin="round"></path>
                <path d="M154.533333,107.312102 L144.945455,99.0573248" id="Stroke-43" stroke="#00C8B3" stroke-width="2.0527182" stroke-linecap="round" stroke-linejoin="round"></path>
                <path d="M183.29697,116.942675 L198.363636,119.694268" id="Stroke-45" stroke="#00C8B3" stroke-width="2.0527182" stroke-linecap="round" stroke-linejoin="round"></path>
                <path d="M212.060606,122.44586 L220.278788,116.942675" id="Stroke-47" stroke="#00C8B3" stroke-width="2.0527182" stroke-linecap="round" stroke-linejoin="round"></path>
                <path d="M206.581818,103.184713 L202.472727,99.0573248" id="Stroke-49" stroke="#00C8B3" stroke-width="2.0527182" stroke-linecap="round" stroke-linejoin="round"></path>
                <path d="M183.29697,99.0573248 L173.709091,103.184713" id="Stroke-51" stroke="#00C8B3" stroke-width="2.0527182" stroke-linecap="round" stroke-linejoin="round"></path>
                <path d="M38.1090909,68.7898089 L38.1584,68.7898089" id="Stroke-53" stroke="#00C8B3" stroke-width="1.3684788" stroke-linecap="round" stroke-linejoin="round"></path>
                <path d="M257.260606,24.7643312 L260,24.7643312" id="Stroke-57" stroke="#00C8B3" stroke-width="1.3684788" stroke-linecap="round" stroke-linejoin="round"></path>
                <path d="M38.1090909,101.808917 L40.8484848,101.808917" id="Stroke-57" stroke="#00C8B3" stroke-width="1.3684788" stroke-linecap="round" stroke-linejoin="round"></path>
                <path d="M254.521212,52.907539 C251.701491,55.7399499 247.129033,55.7399499 244.306987,52.907539 C241.48959,50.0751281 241.48959,45.4820924 244.306987,42.6496815" id="Stroke-59" stroke="#00C8B3" stroke-width="2.0527182" stroke-linecap="round" stroke-linejoin="round"></path>
                <path d="M223.018182,64.0351362 C225.837903,61.2027253 230.410361,61.2027253 233.232407,64.0351362 C236.049804,66.8675471 236.049804,71.4605827 233.232407,74.2929936" id="Stroke-61" stroke="#00C8B3" stroke-width="2.0527182" stroke-linecap="round" stroke-linejoin="round"></path>
                <path d="M233.230963,42.6496815 C236.050285,45.4824931 236.050285,50.0761784 233.230963,52.90899 C230.409316,55.7394662 225.837504,55.7394662 223.018182,52.90899" id="Stroke-63" stroke="#00C8B3" stroke-width="2.0527182" stroke-linecap="round" stroke-linejoin="round"></path>
                <path d="M244.308431,74.2929936 C241.489109,71.4601821 241.489109,66.8664967 244.308431,64.0336852 C247.130078,61.203209 251.70189,61.203209 254.521212,64.0336852" id="Stroke-65" stroke="#00C8B3" stroke-width="2.0527182" stroke-linecap="round" stroke-linejoin="round"></path>
                <path d="M261.369697,109 L261.369697,124.133758" id="Stroke-67" stroke="#00C8B3" stroke-width="2.0527182" stroke-linecap="round" stroke-linejoin="round"></path>
                <path d="M255,116.375796 L267.327273,116.375796" id="Stroke-67" stroke="#00C8B3" stroke-width="2.0527182" stroke-linecap="round" stroke-linejoin="round"></path>
                <path d="M180.557576,0 L180.557576,8.25477707" id="Stroke-71" stroke="#00C8B3" stroke-width="1.3684788" stroke-linecap="round" stroke-linejoin="round"></path>
                <path d="M176.448485,4.12738854 L184.666667,4.12738854" id="Stroke-73" stroke="#00C8B3" stroke-width="1.3684788" stroke-linecap="round" stroke-linejoin="round"></path>
                <path d="M76.4606061,64.6624204 L76.4606061,64.6624204 C70.4099358,64.6624204 65.5052426,59.7348919 65.5052426,53.656051 L65.500818,53.656051 C65.500818,59.7348919 60.5939125,64.6624204 54.5454545,64.6624204 C60.5939125,64.6624204 65.500818,69.5921715 65.500818,75.6687898 L65.5030303,75.6687898 C65.5052426,69.5899489 70.4099358,64.6624204 76.4606061,64.6624204 Z" id="Stroke-75" stroke="#00C8B3" stroke-width="2.0527182" stroke-linecap="round" stroke-linejoin="round"></path>
                <path d="M42.2181818,46.0902058 L42.2181818,46.0902058 C39.9616807,46.0902058 38.1324171,44.5498268 38.1324171,42.6496815 L38.0833093,42.6496815 C38.0833093,44.5498268 36.2540457,46.0902058 34,46.0902058 C36.2540457,46.0902058 38.0833093,47.6305847 38.0833093,49.5286624 L38.1324171,49.5286624 C38.1324171,47.6285171 39.9616807,46.0902058 42.2181818,46.0902058 Z" id="Stroke-77" stroke="#00C8B3" stroke-width="1.3684788" stroke-linecap="round" stroke-linejoin="round"></path>
            </g>
        </g>
    </g>
</svg>