<?xml version="1.0" encoding="UTF-8"?>
<svg width="42px" height="42px" viewBox="0 0 42 42" version="1.1" xmlns="http://www.w3.org/2000/svg" xmlns:xlink="http://www.w3.org/1999/xlink">
    <!-- Generator: Sketch 46.2 (44496) - http://www.bohemiancoding.com/sketch -->
    <title>icone_facebook</title>
    <desc>Created with Sketch.</desc>
    <defs></defs>
    <g id="Email" stroke="none" stroke-width="1" fill="none" fill-rule="evenodd" stroke-linecap="round" stroke-linejoin="round">
        <g id="Disponibilizado-Copy-2" transform="translate(-356.000000, -768.000000)">
            <g id="Group-3" transform="translate(148.000000, 251.000000)">
                <g id="footer" transform="translate(36.000000, 476.000000)">
                    <g id="contatos" transform="translate(128.000000, 0.000000)">
                        <g id="Stacked-Group" transform="translate(45.000000, 42.000000)">
                            <g id="icone_facebook">
                                <g id="Page-1">
                                    <path d="M17.0072318,30.9254393 L17.0073201,20.8932097 L15.4336336,20.8932097 C14.6301898,20.8932097 13.9788874,20.2419073 13.9788874,19.4384636 L13.9788874,18.1628786 C13.9788874,17.3594349 14.6301898,16.7081325 15.4336336,16.7081325 L17.0129713,16.7081325 C17.0129713,16.7081325 17.0072318,14.2056159 17.0157086,13.0849978 C17.0220662,12.2496777 17.1920442,11.4464989 17.566702,10.6955938 C18.2891744,9.248 19.4959735,8.42928035 21.0332804,8.04411479 C21.6610066,7.8866755 23.2246269,7.9669404 24.4369007,8.01585872 C25.2550022,8.048883 25.9115143,8.65038411 25.8913819,9.46883885 L25.8627726,10.5013333 C25.8434349,11.2876468 25.2036998,11.9160795 24.4172097,11.9203179 C23.5697042,11.9247329 22.7638764,11.9242914 22.6117351,11.9373598 C21.8402561,12.0037616 21.4969448,12.4648653 21.4704547,13.2879117 C21.4447594,14.0847329 21.4550022,16.69683 21.4550022,16.69683 L24.4240088,16.69683 C25.2542958,16.69683 25.9162826,17.3907815 25.8770773,18.2201854 L25.8166799,19.499479 C25.7800353,20.2753731 25.1403002,20.8855276 24.3636115,20.8855276 L21.4614481,20.8855276 L21.4613598,30.9254393 C21.4613598,31.728883 20.8100574,32.3801854 20.006702,32.3801854 L18.4619779,32.3801854 C17.6585342,32.3801854 17.0072318,31.728883 17.0072318,30.9254393 Z" id="Stroke-1" stroke="#00C8B3" stroke-width="1.5"></path>
                                    <g id="Group-2" transform="translate(20.000000, 20.000000) rotate(-180.000000) translate(-20.000000, -20.000000) " stroke-width="1.5">
                                        <path d="M0.190445916,22.7540044 C0.750092715,26.7881766 2.5423223,30.6891038 5.58170419,33.8490155 C13.2353024,41.8063664 25.8906667,42.0525475 33.848106,34.3987726 C41.805457,26.7451744 42.051638,14.0898102 34.3978631,6.13245916 C29.1491214,0.675328918 21.5481501,-1.15451656 14.7231611,0.702437086" id="Stroke-3" stroke="#4D4289"></path>
                                        <path d="M12.4264901,1.48037969 C10.1513466,2.40920971 8.01033113,3.77539073 6.13147903,5.58263135 C1.96203091,9.59296247 -0.0888300221,14.976362 0.00300220751,20.3376865" id="Stroke-5" stroke="#00C8B3"></path>
                                    </g>
                                </g>
                            </g>
                        </g>
                    </g>
                </g>
            </g>
        </g>
    </g>
</svg>