<?xml version="1.0" encoding="UTF-8"?>
<svg width="42px" height="42px" viewBox="0 0 42 42" version="1.1" xmlns="http://www.w3.org/2000/svg" xmlns:xlink="http://www.w3.org/1999/xlink">
    <!-- Generator: Sketch 46.2 (44496) - http://www.bohemiancoding.com/sketch -->
    <title>icone_instragram</title>
    <desc>Created with Sketch.</desc>
    <defs></defs>
    <g id="Email" stroke="none" stroke-width="1" fill="none" fill-rule="evenodd" stroke-linecap="round" stroke-linejoin="round">
        <g id="Disponibilizado-Copy-2" transform="translate(-476.000000, -768.000000)">
            <g id="Group-3" transform="translate(148.000000, 251.000000)">
                <g id="footer" transform="translate(36.000000, 476.000000)">
                    <g id="contatos" transform="translate(128.000000, 0.000000)">
                        <g id="Stacked-Group" transform="translate(45.000000, 42.000000)">
                            <g id="icone_instragram" transform="translate(120.000000, 0.000000)">
                                <g id="Page-1">
                                    <path d="M28.8996482,29.5 L10.6002633,29.5 C10.5449151,29.5 10.5,29.4550844 10.5,29.3996473 L10.5000884,11.1001759 C10.5000884,11.0449156 10.5450036,11 10.6003518,11 L28.8997367,11.0000884 C28.9550849,11.0000884 29,11.0449156 29,11.1002643 L28.9999116,29.3997357 C28.9999116,29.4551728 28.9549964,29.5 28.8996482,29.5 Z" id="Stroke-1" stroke="#00C8B3" stroke-width="1.5"></path>
                                    <path d="M24.5,20.000045 C24.5,22.4853393 22.4852291,24.5 20,24.5 C17.5146809,24.5 15.5,22.4852493 15.5,20.000045 C15.5,17.5147507 17.5147709,15.5 20,15.5 C22.4853191,15.5 24.5,17.5147507 24.5,20.000045 Z" id="Stroke-3" stroke="#00C8B3" stroke-width="1.5"></path>
                                    <path d="M26.5,14.75 C26.5,15.440293 25.940385,16 25.25,16 C24.559615,16 24,15.440293 24,14.75 C24,14.059615 24.559615,13.5 25.25,13.5 C25.940385,13.5 26.5,14.059615 26.5,14.75 Z" id="Stroke-5" stroke="#00C8B3" stroke-width="1.5"></path>
                                    <g id="Group-2" transform="translate(20.000000, 20.000000) rotate(-180.000000) translate(-20.000000, -20.000000) " stroke-width="1.5">
                                        <path d="M0.5,22.7643196 C1.05556199,26.8003217 2.83471025,30.7030183 5.85182033,33.8643633 C13.4496433,41.8253237 26.0126372,42.0716164 33.9119083,34.4143699 C41.8111793,26.7573 42.0555635,14.0961954 34.4576528,6.13523497 C29.2472212,0.67562941 21.7018163,-1.15504607 14.9266423,0.702749873" id="Stroke-7" stroke="#4D4289"></path>
                                        <path d="M12.5,1.5 C10.2114773,2.43585847 8.0577878,3.81237738 6.16772475,5.63329338 C1.97359499,9.67397066 -0.0894062997,15.0981064 0.00296954378,20.5" id="Stroke-9" stroke="#00C8B3"></path>
                                    </g>
                                </g>
                            </g>
                        </g>
                    </g>
                </g>
            </g>
        </g>
    </g>
</svg>