<?xml version="1.0" encoding="UTF-8"?>
<svg width="42px" height="42px" viewBox="0 0 42 42" version="1.1" xmlns="http://www.w3.org/2000/svg" xmlns:xlink="http://www.w3.org/1999/xlink">
    <!-- Generator: Sketch 46.2 (44496) - http://www.bohemiancoding.com/sketch -->
    <title>icone_youtube</title>
    <desc>Created with Sketch.</desc>
    <defs></defs>
    <g id="Email" stroke="none" stroke-width="1" fill="none" fill-rule="evenodd" stroke-linecap="round" stroke-linejoin="round">
        <g id="Disponibilizado-Copy-2" transform="translate(-536.000000, -768.000000)">
            <g id="Group-3" transform="translate(148.000000, 251.000000)">
                <g id="footer" transform="translate(36.000000, 476.000000)">
                    <g id="contatos" transform="translate(128.000000, 0.000000)">
                        <g id="Stacked-Group" transform="translate(45.000000, 42.000000)">
                            <g id="icone_youtube" transform="translate(180.000000, 0.000000)">
                                <g id="Page-1">
                                    <path d="M27.2181194,18.9574124 L17.1413803,13.6694601 C16.1680579,13.1587464 15.0000887,13.8639249 15.0000887,14.9621987 L15,25.5378374 C15,26.6361112 16.1679691,27.3412011 17.1412915,26.830576 L27.2180307,21.5428896 C28.2606417,20.9958356 28.2606417,19.504555 27.2181194,18.9574124 Z" id="Stroke-1" stroke="#00C8B3" stroke-width="1.5"></path>
                                    <g id="Group-2" transform="translate(20.000000, 20.000000) rotate(180.000000) translate(-20.000000, -20.000000) " stroke-width="1.5">
                                        <path d="M0.5,22.7643196 C1.05556137,26.8003217 2.83470766,30.7030183 5.85181439,33.8643633 C13.449629,41.8253237 26.0126089,42.0716164 33.9118712,34.4143699 C41.8112211,26.7573 42.0555174,14.0961954 34.4577028,6.13523497 C29.2471893,0.67562941 21.7017928,-1.15504607 14.9266263,0.702749873" id="Stroke-3" stroke="#4D4289"></path>
                                        <path d="M12.5,1.5 C10.211462,2.43585847 8.05775818,3.81237738 6.16777135,5.63329338 C1.97361362,9.67397066 -0.0894902483,15.0981064 0.00297503464,20.5" id="Stroke-5" stroke="#00C8B3"></path>
                                    </g>
                                </g>
                            </g>
                        </g>
                    </g>
                </g>
            </g>
        </g>
    </g>
</svg>