<?xml version="1.0" encoding="UTF-8"?>
<svg width="42px" height="42px" viewBox="0 0 42 42" version="1.1" xmlns="http://www.w3.org/2000/svg" xmlns:xlink="http://www.w3.org/1999/xlink">
    <!-- Generator: Sketch 46.2 (44496) - http://www.bohemiancoding.com/sketch -->
    <title>icone_twitter</title>
    <desc>Created with Sketch.</desc>
    <defs></defs>
    <g id="Email" stroke="none" stroke-width="1" fill="none" fill-rule="evenodd">
        <g id="Disponibilizado-Copy-2" transform="translate(-416.000000, -768.000000)">
            <g id="Group-3" transform="translate(148.000000, 251.000000)">
                <g id="footer" transform="translate(36.000000, 476.000000)">
                    <g id="contatos" transform="translate(128.000000, 0.000000)">
                        <g id="Stacked-Group" transform="translate(45.000000, 42.000000)">
                            <g id="icone_twitter" transform="translate(60.000000, 0.000000)">
                                <g id="Page-1">
                                    <g id="Group-2" transform="translate(20.000000, 20.000000) rotate(-180.000000) translate(-20.000000, -20.000000) " stroke-width="1.5" stroke-linecap="round" stroke-linejoin="round">
                                        <path d="M0.257295154,22.771163 C0.815709251,26.7964493 2.60399119,30.6887841 5.63667841,33.8417357 C13.2734185,41.7815595 25.9009075,42.0271982 33.8408194,34.3902819 C41.7806432,26.7535419 42.0262819,14.1260529 34.3893656,6.18622907 C29.1520969,0.741118943 21.5679559,-1.08469604 14.758,0.768167401" id="Stroke-1" stroke="#4D4289"></path>
                                        <path d="M12.4663877,1.54438767 C10.1962555,2.47117181 8.05995595,3.83434361 6.18524229,5.63760352 C2.02497797,9.63910132 -0.0214537445,15.0106432 0.0702643172,20.3601586" id="Stroke-3" stroke="#00C8B3"></path>
                                    </g>
                                    <path d="M16.1559912,16.1341498 C16.1559912,16.1341498 23.0152863,16.100141 26.3262115,16.1341498 C27.3485903,16.1447225 28.1601322,16.8484229 28.3751101,17.8257797 C28.6489427,19.071859 27.7003965,20.2788194 26.4232159,20.2814626 C24.2396916,20.2860441 16.1559912,20.2814626 16.1559912,20.2814626 C16.1559912,20.2814626 16.1529075,22.6203172 16.1559031,23.7241057 C16.1574009,24.2434009 16.2263877,24.7537974 16.4035683,25.2445463 C16.8186344,26.3945903 17.6713216,27.04437 18.8440969,27.2589956 C19.0702643,27.3004053 23.8295595,27.2553833 25.9776652,27.2589956 C27.0301762,27.2607577 27.863304,27.9898326 28.0523789,29.011859 C28.2756388,30.2180264 27.3409251,31.383489 26.1142291,31.4299207 C26.0253304,31.4333568 21.5147577,31.4700088 19.3495595,31.4299207 C15.9180176,31.3663965 12.9345815,29.2400529 12.196696,25.5271013 C12.0773128,24.9263084 12.0155507,24.303489 12.0135242,23.6905374 C11.9986344,19.3053392 12.0125551,14.920141 12.0135242,10.5348546 C12.0137885,9.39820264 12.779163,8.53776211 13.8999559,8.41309251 C15.0156388,8.28903965 16.0909692,9.18974449 16.1559912,10.311859 C16.1621586,10.4183789 16.1559912,16.1341498 16.1559912,16.1341498 Z" id="Stroke-5" stroke="#00C8B3" stroke-width="1.5"></path>
                                </g>
                            </g>
                        </g>
                    </g>
                </g>
            </g>
        </g>
    </g>
</svg>