<?xml version="1.0" encoding="UTF-8"?>
<svg width="41px" height="31px" viewBox="0 0 41 31" version="1.1" xmlns="http://www.w3.org/2000/svg" xmlns:xlink="http://www.w3.org/1999/xlink">
    <!-- Generator: Sketch 46.2 (44496) - http://www.bohemiancoding.com/sketch -->
    <title>logo</title>
    <desc>Created with Sketch.</desc>
    <defs>
        <path d="M26.7262154,15.3773034 C26.6621849,15.5474689 26.5432119,15.6941735 26.3813287,15.7889042 L1.23612804,30.4852071 C1.10776145,30.560439 0.963649716,30.5974026 0.820194033,30.5974026 C0.641311795,30.5974026 0.462866922,30.5391305 0.314600226,30.4247607 C0.0493384228,30.2173295 -0.062189623,29.8709586 0.0342493343,29.5502448 L8.79423062,15.6319175 L8.79466799,15.2203167 L8.79510023,14.712393 L0.0351189424,1.05172388 C-0.0621947446,0.731010066 0.0469277943,0.384856579 0.310440138,0.17633824 C0.459581564,0.0600115343 0.639557214,0 0.820626277,0 C0.961895135,0 1.10316399,0.0358764607 1.23021849,0.108933981 L26.3754192,14.5360547 C26.6290908,14.6819523 26.7843553,14.9489602 26.7865422,15.2396682 C26.7865422,15.2866338 26.775608,15.3316424 26.7690476,15.3773034 L26.7262154,15.3773034 Z M40.9401486,15.3773034 C40.876625,15.5474689 40.7585664,15.6941735 40.5949969,15.7889042 L15.4504523,30.4852071 C15.3220857,30.560439 15.17863,30.5974026 15.0351743,30.5974026 C14.8560734,30.5974026 14.6771911,30.5391305 14.5293618,30.4247607 C14.2638813,30.2173295 14.1521346,29.8709586 14.2485736,29.5502448 L19.1634615,21.7689666 L27.1525871,15.8199971 C27.3647091,15.6977997 27.4937318,15.4631894 27.5309078,15.2203167 L27.5487196,15.2203167 C27.5431351,14.9335895 27.348358,14.6187424 27.0983571,14.474956 L19.1639021,8.64622703 L14.2494515,1.05172388 C14.1521378,0.731010066 14.2614791,0.384856579 14.524554,0.17633824 C14.6732581,0.0600115343 14.8541085,0 15.0349589,0 C15.1766651,0 15.3168405,0.0358764607 15.4443324,0.108933981 L40.5910638,14.5360547 C40.8425486,14.6819523 40.9978132,14.9489602 41,15.2396682 C41,15.2866338 40.9912527,15.3316424 40.9825054,15.3773034 L40.9401486,15.3773034 Z" id="path-1"></path>
    </defs>
    <g id="Email" stroke="none" stroke-width="1" fill="none" fill-rule="evenodd">
        <g id="Disponibilizado-Copy-2" transform="translate(-447.000000, -46.000000)">
            <g id="logo" transform="translate(447.000000, 46.000000)">
                <mask id="mask-2" fill="white">
                    <use xlink:href="#path-1"></use>
                </mask>
                <use id="Mask" fill="#4D4289" xlink:href="#path-1"></use>
            </g>
        </g>
    </g>
</svg>